<svg width="58" height="43" viewBox="0 0 58 43" fill="none" xmlns="http://www.w3.org/2000/svg">
<path d="M3 0.333331C1.52724 0.333331 0.333332 1.52724 0.333332 3C0.333332 4.47276 1.52724 5.66666 3 5.66666C4.47276 5.66666 5.66667 4.47276 5.66667 3C5.66667 1.52724 4.47276 0.333331 3 0.333331ZM54.9996 3L55.4996 3L55.4996 2.5L54.9996 2.5L54.9996 3ZM55 43L57.8867 38L52.1132 38L55 43ZM3 3.5L9.49995 3.5L9.49995 2.5L3 2.5L3 3.5ZM22.4999 3.5L35.4998 3.5L35.4998 2.5L22.4999 2.5L22.4999 3.5ZM48.4997 3.5L54.9996 3.5L54.9996 2.5L48.4997 2.5L48.4997 3.5ZM54.4996 3L54.4997 8.00001L55.4997 8L55.4996 3L54.4996 3ZM54.4998 18L54.4999 28L55.4999 28L55.4998 18L54.4998 18ZM54.5 38L54.5 38.5L55.5 38.5L55.5 38L54.5 38ZM3 0.333331C1.52724 0.333331 0.333332 1.52724 0.333332 3C0.333332 4.47276 1.52724 5.66666 3 5.66666C4.47276 5.66666 5.66667 4.47276 5.66667 3C5.66667 1.52724 4.47276 0.333331 3 0.333331ZM54.9996 3L55.4996 3L55.4996 2.5L54.9996 2.5L54.9996 3ZM55 43L57.8867 38L52.1132 38L55 43ZM3 3.5L9.49995 3.5L9.49995 2.5L3 2.5L3 3.5ZM22.4999 3.5L35.4998 3.5L35.4998 2.5L22.4999 2.5L22.4999 3.5ZM48.4997 3.5L54.9996 3.5L54.9996 2.5L48.4997 2.5L48.4997 3.5ZM54.4996 3L54.4997 8.00001L55.4997 8L55.4996 3L54.4996 3ZM54.4998 18L54.4999 28L55.4999 28L55.4998 18L54.4998 18ZM54.5 38L54.5 38.5L55.5 38.5L55.5 38L54.5 38Z" fill="#6C3C14"/>
</svg>
