<svg width="242" height="203" viewBox="0 0 242 203" fill="none" xmlns="http://www.w3.org/2000/svg">
<path d="M236 6.00001L237 6.00001L237 5.00001L236 5.00001L236 6.00001ZM5.99999 0.666665C3.05447 0.666665 0.666659 3.05448 0.666659 6C0.666659 8.94552 3.05447 11.3333 5.99999 11.3333C8.94551 11.3333 11.3333 8.94552 11.3333 6C11.3333 3.05448 8.94551 0.666665 5.99999 0.666665ZM236 203L241.773 193L230.226 193L236 203ZM5.99999 7L11.75 7L11.75 5L5.99999 5L5.99999 7ZM23.25 7L34.75 7L34.75 5L23.25 5L23.25 7ZM46.25 7L57.75 7L57.75 5L46.25 5L46.25 7ZM69.25 7L80.75 7L80.75 5L69.25 5L69.25 7ZM92.25 7L103.75 7L103.75 5L92.25 5L92.25 7ZM115.25 7L126.75 7L126.75 5L115.25 5L115.25 7ZM138.25 7L149.75 7L149.75 5L138.25 5L138.25 7ZM161.25 7.00001L172.75 7.00001L172.75 5.00001L161.25 5.00001L161.25 7.00001ZM184.25 7.00001L195.75 7.00001L195.75 5.00001L184.25 5.00001L184.25 7.00001ZM207.25 7.00001L218.75 7.00001L218.75 5.00001L207.25 5.00001L207.25 7.00001ZM230.25 7.00001L236 7.00001L236 5.00001L230.25 5.00001L230.25 7.00001ZM235 6.00001L235 12.1563L237 12.1563L237 6.00001L235 6.00001ZM235 24.4688L235 36.7813L237 36.7813L237 24.4688L235 24.4688ZM235 49.0938L235 61.4063L237 61.4063L237 49.0938L235 49.0938ZM235 73.7188L235 86.0313L237 86.0313L237 73.7188L235 73.7188ZM235 98.3438L235 110.656L237 110.656L237 98.3438L235 98.3438ZM235 122.969L235 135.281L237 135.281L237 122.969L235 122.969ZM235 147.594L235 159.906L237 159.906L237 147.594L235 147.594ZM235 172.219L235 184.531L237 184.531L237 172.219L235 172.219ZM236 6.00001L237 6.00001L237 5.00001L236 5.00001L236 6.00001ZM5.99999 0.666665C3.05447 0.666665 0.666659 3.05448 0.666659 6C0.666659 8.94552 3.05447 11.3333 5.99999 11.3333C8.94551 11.3333 11.3333 8.94552 11.3333 6C11.3333 3.05448 8.94551 0.666665 5.99999 0.666665ZM236 203L241.773 193L230.226 193L236 203ZM5.99999 7L11.75 7L11.75 5L5.99999 5L5.99999 7ZM23.25 7L34.75 7L34.75 5L23.25 5L23.25 7ZM46.25 7L57.75 7L57.75 5L46.25 5L46.25 7ZM69.25 7L80.75 7L80.75 5L69.25 5L69.25 7ZM92.25 7L103.75 7L103.75 5L92.25 5L92.25 7ZM115.25 7L126.75 7L126.75 5L115.25 5L115.25 7ZM138.25 7L149.75 7L149.75 5L138.25 5L138.25 7ZM161.25 7.00001L172.75 7.00001L172.75 5.00001L161.25 5.00001L161.25 7.00001ZM184.25 7.00001L195.75 7.00001L195.75 5.00001L184.25 5.00001L184.25 7.00001ZM207.25 7.00001L218.75 7.00001L218.75 5.00001L207.25 5.00001L207.25 7.00001ZM230.25 7.00001L236 7.00001L236 5.00001L230.25 5.00001L230.25 7.00001ZM235 6.00001L235 12.1563L237 12.1563L237 6.00001L235 6.00001ZM235 24.4688L235 36.7813L237 36.7813L237 24.4688L235 24.4688ZM235 49.0938L235 61.4063L237 61.4063L237 49.0938L235 49.0938ZM235 73.7188L235 86.0313L237 86.0313L237 73.7188L235 73.7188ZM235 98.3438L235 110.656L237 110.656L237 98.3438L235 98.3438ZM235 122.969L235 135.281L237 135.281L237 122.969L235 122.969ZM235 147.594L235 159.906L237 159.906L237 147.594L235 147.594ZM235 172.219L235 184.531L237 184.531L237 172.219L235 172.219Z" fill="#6C3C14"/>
</svg>
