<svg width="370" height="12" viewBox="0 0 370 12" fill="none" xmlns="http://www.w3.org/2000/svg">
<path d="M369.333 6C369.333 3.05448 366.946 0.666667 364 0.666667C361.054 0.666666 358.667 3.05448 358.667 6C358.667 8.94552 361.054 11.3333 364 11.3333C366.946 11.3333 369.333 8.94552 369.333 6ZM0 5.99997L10 11.7735L10 0.226466L0 5.99997ZM364 5L357.933 5L357.933 7L364 7L364 5ZM345.8 5L333.667 5L333.667 7L345.8 7L345.8 5ZM321.533 5L309.4 5L309.4 7L321.533 7L321.533 5ZM297.267 4.99999L285.133 4.99999L285.133 6.99999L297.267 6.99999L297.267 4.99999ZM273 4.99999L260.867 4.99999L260.867 6.99999L273 6.99999L273 4.99999ZM248.733 4.99999L236.6 4.99999L236.6 6.99999L248.733 6.99999L248.733 4.99999ZM224.467 4.99999L212.333 4.99999L212.333 6.99999L224.467 6.99999L224.467 4.99999ZM200.2 4.99999L188.067 4.99998L188.067 6.99998L200.2 6.99999L200.2 4.99999ZM175.933 4.99998L163.8 4.99998L163.8 6.99998L175.933 6.99998L175.933 4.99998ZM151.667 4.99998L139.533 4.99998L139.533 6.99998L151.667 6.99998L151.667 4.99998ZM127.4 4.99998L115.267 4.99998L115.267 6.99998L127.4 6.99998L127.4 4.99998ZM103.133 4.99998L91 4.99998L91 6.99998L103.133 6.99998L103.133 4.99998ZM78.8667 4.99998L66.7334 4.99997L66.7334 6.99997L78.8667 6.99998L78.8667 4.99998ZM54.6 4.99997L42.4667 4.99997L42.4667 6.99997L54.6 6.99997L54.6 4.99997ZM30.3334 4.99997L18.2 4.99997L18.2 6.99997L30.3334 6.99997L30.3334 4.99997ZM369.333 6C369.333 3.05448 366.946 0.666667 364 0.666667C361.054 0.666666 358.667 3.05448 358.667 6C358.667 8.94552 361.054 11.3333 364 11.3333C366.946 11.3333 369.333 8.94552 369.333 6ZM0 5.99997L10 11.7735L10 0.226466L0 5.99997ZM364 5L357.933 5L357.933 7L364 7L364 5ZM345.8 5L333.667 5L333.667 7L345.8 7L345.8 5ZM321.533 5L309.4 5L309.4 7L321.533 7L321.533 5ZM297.267 4.99999L285.133 4.99999L285.133 6.99999L297.267 6.99999L297.267 4.99999ZM273 4.99999L260.867 4.99999L260.867 6.99999L273 6.99999L273 4.99999ZM248.733 4.99999L236.6 4.99999L236.6 6.99999L248.733 6.99999L248.733 4.99999ZM224.467 4.99999L212.333 4.99999L212.333 6.99999L224.467 6.99999L224.467 4.99999ZM200.2 4.99999L188.067 4.99998L188.067 6.99998L200.2 6.99999L200.2 4.99999ZM175.933 4.99998L163.8 4.99998L163.8 6.99998L175.933 6.99998L175.933 4.99998ZM151.667 4.99998L139.533 4.99998L139.533 6.99998L151.667 6.99998L151.667 4.99998ZM127.4 4.99998L115.267 4.99998L115.267 6.99998L127.4 6.99998L127.4 4.99998ZM103.133 4.99998L91 4.99998L91 6.99998L103.133 6.99998L103.133 4.99998ZM78.8667 4.99998L66.7334 4.99997L66.7334 6.99997L78.8667 6.99998L78.8667 4.99998ZM54.6 4.99997L42.4667 4.99997L42.4667 6.99997L54.6 6.99997L54.6 4.99997ZM30.3334 4.99997L18.2 4.99997L18.2 6.99997L30.3334 6.99997L30.3334 4.99997Z" fill="#6C3C14"/>
</svg>
