<svg width="242" height="203" viewBox="0 0 242 203" fill="none" xmlns="http://www.w3.org/2000/svg">
<path d="M5.99998 6.00001L4.99998 6.00001L4.99998 5.00001L5.99998 5.00001L5.99998 6.00001ZM236 0.666665C238.945 0.666665 241.333 3.05448 241.333 6C241.333 8.94552 238.945 11.3333 236 11.3333C233.054 11.3333 230.667 8.94552 230.667 6C230.667 3.05448 233.054 0.666665 236 0.666665ZM5.99999 203L0.22649 193L11.7735 193L5.99999 203ZM236 7L230.25 7L230.25 5L236 5L236 7ZM218.75 7L207.25 7L207.25 5L218.75 5L218.75 7ZM195.75 7L184.25 7L184.25 5L195.75 5L195.75 7ZM172.75 7L161.25 7L161.25 5L172.75 5L172.75 7ZM149.75 7L138.25 7L138.25 5L149.75 5L149.75 7ZM126.75 7L115.25 7L115.25 5L126.75 5L126.75 7ZM103.75 7L92.25 7L92.25 5L103.75 5L103.75 7ZM80.75 7.00001L69.25 7.00001L69.25 5.00001L80.75 5.00001L80.75 7.00001ZM57.75 7.00001L46.25 7.00001L46.25 5.00001L57.75 5.00001L57.75 7.00001ZM34.75 7.00001L23.25 7.00001L23.25 5.00001L34.75 5.00001L34.75 7.00001ZM11.75 7.00001L5.99998 7.00001L5.99998 5.00001L11.75 5.00001L11.75 7.00001ZM6.99998 6.00001L6.99999 12.1563L4.99999 12.1563L4.99998 6.00001L6.99998 6.00001ZM6.99999 24.4688L6.99999 36.7813L4.99999 36.7813L4.99999 24.4688L6.99999 24.4688ZM6.99999 49.0938L6.99999 61.4063L4.99999 61.4063L4.99999 49.0938L6.99999 49.0938ZM6.99999 73.7188L6.99999 86.0313L4.99999 86.0313L4.99999 73.7188L6.99999 73.7188ZM6.99999 98.3438L6.99999 110.656L4.99999 110.656L4.99999 98.3438L6.99999 98.3438ZM6.99999 122.969L6.99999 135.281L4.99999 135.281L4.99999 122.969L6.99999 122.969ZM6.99999 147.594L6.99999 159.906L4.99999 159.906L4.99999 147.594L6.99999 147.594ZM6.99999 172.219L6.99999 184.531L4.99999 184.531L4.99999 172.219L6.99999 172.219ZM5.99998 6.00001L4.99998 6.00001L4.99998 5.00001L5.99998 5.00001L5.99998 6.00001ZM236 0.666665C238.945 0.666665 241.333 3.05448 241.333 6C241.333 8.94552 238.945 11.3333 236 11.3333C233.054 11.3333 230.667 8.94552 230.667 6C230.667 3.05448 233.054 0.666665 236 0.666665ZM5.99999 203L0.22649 193L11.7735 193L5.99999 203ZM236 7L230.25 7L230.25 5L236 5L236 7ZM218.75 7L207.25 7L207.25 5L218.75 5L218.75 7ZM195.75 7L184.25 7L184.25 5L195.75 5L195.75 7ZM172.75 7L161.25 7L161.25 5L172.75 5L172.75 7ZM149.75 7L138.25 7L138.25 5L149.75 5L149.75 7ZM126.75 7L115.25 7L115.25 5L126.75 5L126.75 7ZM103.75 7L92.25 7L92.25 5L103.75 5L103.75 7ZM80.75 7.00001L69.25 7.00001L69.25 5.00001L80.75 5.00001L80.75 7.00001ZM57.75 7.00001L46.25 7.00001L46.25 5.00001L57.75 5.00001L57.75 7.00001ZM34.75 7.00001L23.25 7.00001L23.25 5.00001L34.75 5.00001L34.75 7.00001ZM11.75 7.00001L5.99998 7.00001L5.99998 5.00001L11.75 5.00001L11.75 7.00001ZM6.99998 6.00001L6.99999 12.1563L4.99999 12.1563L4.99998 6.00001L6.99998 6.00001ZM6.99999 24.4688L6.99999 36.7813L4.99999 36.7813L4.99999 24.4688L6.99999 24.4688ZM6.99999 49.0938L6.99999 61.4063L4.99999 61.4063L4.99999 49.0938L6.99999 49.0938ZM6.99999 73.7188L6.99999 86.0313L4.99999 86.0313L4.99999 73.7188L6.99999 73.7188ZM6.99999 98.3438L6.99999 110.656L4.99999 110.656L4.99999 98.3438L6.99999 98.3438ZM6.99999 122.969L6.99999 135.281L4.99999 135.281L4.99999 122.969L6.99999 122.969ZM6.99999 147.594L6.99999 159.906L4.99999 159.906L4.99999 147.594L6.99999 147.594ZM6.99999 172.219L6.99999 184.531L4.99999 184.531L4.99999 172.219L6.99999 172.219Z" fill="#6C3C14"/>
</svg>
