<svg width="390" height="12" viewBox="0 0 390 12" fill="none" xmlns="http://www.w3.org/2000/svg">
<path d="M0.666667 6C0.666667 8.94552 3.05448 11.3333 6 11.3333C8.94552 11.3333 11.3333 8.94552 11.3333 6C11.3333 3.05448 8.94552 0.666667 6 0.666667C3.05448 0.666667 0.666667 3.05448 0.666667 6ZM390 6L380 0.226497V11.7735L390 6ZM6 7H12V5H6V7ZM24 7H36V5H24V7ZM48 7H60V5H48V7ZM72 7H84V5H72V7ZM96 7H108V5H96V7ZM120 7H132V5H120V7ZM144 7H156V5H144V7ZM168 7H180V5H168V7ZM192 7H204V5H192V7ZM216 7H228V5H216V7ZM240 7H252V5H240V7ZM264 7H276V5H264V7ZM288 7H300V5H288V7ZM312 7H324V5H312V7ZM336 7H348V5H336V7ZM360 7H372V5H360V7ZM0.666667 6C0.666667 8.94552 3.05448 11.3333 6 11.3333C8.94552 11.3333 11.3333 8.94552 11.3333 6C11.3333 3.05448 8.94552 0.666667 6 0.666667C3.05448 0.666667 0.666667 3.05448 0.666667 6ZM390 6L380 0.226497V11.7735L390 6ZM6 7H12V5H6V7ZM24 7H36V5H24V7ZM48 7H60V5H48V7ZM72 7H84V5H72V7ZM96 7H108V5H96V7ZM120 7H132V5H120V7ZM144 7H156V5H144V7ZM168 7H180V5H168V7ZM192 7H204V5H192V7ZM216 7H228V5H216V7ZM240 7H252V5H240V7ZM264 7H276V5H264V7ZM288 7H300V5H288V7ZM312 7H324V5H312V7ZM336 7H348V5H336V7ZM360 7H372V5H360V7Z" fill="#6C3C14"/>
</svg>
