<svg width="346" height="219" viewBox="0 0 346 219" fill="none" xmlns="http://www.w3.org/2000/svg">
<path d="M293.5 0.666664C290.554 0.666664 288.166 3.05448 288.166 6C288.166 8.94552 290.554 11.3333 293.5 11.3333C296.445 11.3333 298.833 8.94552 298.833 6C298.833 3.05448 296.445 0.666664 293.5 0.666664ZM344.5 6L345.5 6L345.5 5L344.5 5L344.5 6ZM344.5 212.5L344.5 213.5L345.5 213.5L345.5 212.5L344.5 212.5ZM327.999 212.5L327.999 211.5L327.999 211.5L327.999 212.5ZM-0.000253167 212.5L9.99975 218.273L9.99975 206.726L-0.000253167 212.5ZM293.5 7L299.875 7L299.875 5L293.5 5L293.5 7ZM312.625 7L325.375 7L325.375 5L312.625 5L312.625 7ZM338.125 7L344.5 7L344.5 5L338.125 5L338.125 7ZM343.5 6L343.5 11.7361L345.5 11.7361L345.5 6L343.5 6ZM343.5 23.2083L343.5 34.6806L345.5 34.6806L345.5 23.2083L343.5 23.2083ZM343.5 46.1528L343.5 57.625L345.5 57.625L345.5 46.1528L343.5 46.1528ZM343.5 69.0972L343.5 80.5694L345.5 80.5694L345.5 69.0972L343.5 69.0972ZM343.5 92.0417L343.5 103.514L345.5 103.514L345.5 92.0417L343.5 92.0417ZM343.5 114.986L343.5 126.458L345.5 126.458L345.5 114.986L343.5 114.986ZM343.5 137.931L343.5 149.403L345.5 149.403L345.5 137.931L343.5 137.931ZM343.5 160.875L343.5 172.347L345.5 172.347L345.5 160.875L343.5 160.875ZM343.5 183.819L343.5 195.292L345.5 195.292L345.5 183.819L343.5 183.819ZM343.5 206.764L343.5 212.5L345.5 212.5L345.5 206.764L343.5 206.764ZM344.5 211.5L340.375 211.5L340.375 213.5L344.5 213.5L344.5 211.5ZM332.125 211.5L327.999 211.5L327.999 213.5L332.125 213.5L332.125 211.5ZM327.999 211.5L322.142 211.5L322.142 213.5L327.999 213.5L327.999 211.5ZM310.428 211.5L298.714 211.5L298.714 213.5L310.428 213.5L310.428 211.5ZM286.999 211.5L275.285 211.5L275.285 213.5L286.999 213.5L286.999 211.5ZM263.571 211.5L251.857 211.5L251.857 213.5L263.571 213.5L263.571 211.5ZM240.142 211.5L228.428 211.5L228.428 213.5L240.142 213.5L240.142 211.5ZM216.714 211.5L205 211.5L205 213.5L216.714 213.5L216.714 211.5ZM193.285 211.5L181.571 211.5L181.571 213.5L193.285 213.5L193.285 211.5ZM169.857 211.5L158.142 211.5L158.142 213.5L169.857 213.5L169.857 211.5ZM146.428 211.5L134.714 211.5L134.714 213.5L146.428 213.5L146.428 211.5ZM123 211.5L111.285 211.5L111.285 213.5L123 213.5L123 211.5ZM99.5711 211.5L87.8568 211.5L87.8568 213.5L99.5711 213.5L99.5711 211.5ZM76.1425 211.5L64.4282 211.5L64.4282 213.5L76.1425 213.5L76.1425 211.5ZM52.7139 211.5L40.9997 211.5L40.9997 213.5L52.7139 213.5L52.7139 211.5ZM29.2854 211.5L17.5712 211.5L17.5712 213.5L29.2854 213.5L29.2854 211.5ZM293.5 0.666664C290.554 0.666664 288.166 3.05448 288.166 6C288.166 8.94552 290.554 11.3333 293.5 11.3333C296.445 11.3333 298.833 8.94552 298.833 6C298.833 3.05448 296.445 0.666664 293.5 0.666664ZM344.5 6L345.5 6L345.5 5L344.5 5L344.5 6ZM344.5 212.5L344.5 213.5L345.5 213.5L345.5 212.5L344.5 212.5ZM327.999 212.5L327.999 211.5L327.999 211.5L327.999 212.5ZM-0.000253167 212.5L9.99975 218.273L9.99975 206.726L-0.000253167 212.5ZM293.5 7L299.875 7L299.875 5L293.5 5L293.5 7ZM312.625 7L325.375 7L325.375 5L312.625 5L312.625 7ZM338.125 7L344.5 7L344.5 5L338.125 5L338.125 7ZM343.5 6L343.5 11.7361L345.5 11.7361L345.5 6L343.5 6ZM343.5 23.2083L343.5 34.6806L345.5 34.6806L345.5 23.2083L343.5 23.2083ZM343.5 46.1528L343.5 57.625L345.5 57.625L345.5 46.1528L343.5 46.1528ZM343.5 69.0972L343.5 80.5694L345.5 80.5694L345.5 69.0972L343.5 69.0972ZM343.5 92.0417L343.5 103.514L345.5 103.514L345.5 92.0417L343.5 92.0417ZM343.5 114.986L343.5 126.458L345.5 126.458L345.5 114.986L343.5 114.986ZM343.5 137.931L343.5 149.403L345.5 149.403L345.5 137.931L343.5 137.931ZM343.5 160.875L343.5 172.347L345.5 172.347L345.5 160.875L343.5 160.875ZM343.5 183.819L343.5 195.292L345.5 195.292L345.5 183.819L343.5 183.819ZM343.5 206.764L343.5 212.5L345.5 212.5L345.5 206.764L343.5 206.764ZM344.5 211.5L340.375 211.5L340.375 213.5L344.5 213.5L344.5 211.5ZM332.125 211.5L327.999 211.5L327.999 213.5L332.125 213.5L332.125 211.5ZM327.999 211.5L322.142 211.5L322.142 213.5L327.999 213.5L327.999 211.5ZM310.428 211.5L298.714 211.5L298.714 213.5L310.428 213.5L310.428 211.5ZM286.999 211.5L275.285 211.5L275.285 213.5L286.999 213.5L286.999 211.5ZM263.571 211.5L251.857 211.5L251.857 213.5L263.571 213.5L263.571 211.5ZM240.142 211.5L228.428 211.5L228.428 213.5L240.142 213.5L240.142 211.5ZM216.714 211.5L205 211.5L205 213.5L216.714 213.5L216.714 211.5ZM193.285 211.5L181.571 211.5L181.571 213.5L193.285 213.5L193.285 211.5ZM169.857 211.5L158.142 211.5L158.142 213.5L169.857 213.5L169.857 211.5ZM146.428 211.5L134.714 211.5L134.714 213.5L146.428 213.5L146.428 211.5ZM123 211.5L111.285 211.5L111.285 213.5L123 213.5L123 211.5ZM99.5711 211.5L87.8568 211.5L87.8568 213.5L99.5711 213.5L99.5711 211.5ZM76.1425 211.5L64.4282 211.5L64.4282 213.5L76.1425 213.5L76.1425 211.5ZM52.7139 211.5L40.9997 211.5L40.9997 213.5L52.7139 213.5L52.7139 211.5ZM29.2854 211.5L17.5712 211.5L17.5712 213.5L29.2854 213.5L29.2854 211.5Z" fill="#6C3C14"/>
</svg>
