<svg width="373" height="315" viewBox="0 0 373 315" fill="none" xmlns="http://www.w3.org/2000/svg">
<path d="M268 0.666663C270.946 0.666663 273.333 3.05448 273.333 6C273.333 8.94552 270.946 11.3333 268 11.3333C265.054 11.3333 262.667 8.94552 262.667 6C262.667 3.05448 265.054 0.666663 268 0.666663ZM1.00002 6L2.25902e-05 6L2.26378e-05 5L1.00002 5L1.00002 6ZM1 309L1 310L3.50595e-06 310L3.61324e-06 309L1 309ZM373 309L363 314.773L363 303.226L373 309ZM268 7L261.932 7L261.932 5L268 5L268 7ZM249.795 7L237.659 7L237.659 5L249.795 5L249.795 7ZM225.523 7L213.386 7L213.386 5L225.523 5L225.523 7ZM201.25 7L189.114 7L189.114 5L201.25 5L201.25 7ZM176.977 7L164.841 7L164.841 5L176.977 5L176.977 7ZM152.705 7L140.568 7L140.568 5L152.705 5L152.705 7ZM128.432 7L116.295 7L116.295 5L128.432 5L128.432 7ZM104.159 7L92.0227 7L92.0227 5L104.159 5L104.159 7ZM79.8864 7L67.75 7L67.75 5L79.8864 5L79.8864 7ZM55.6136 7L43.4773 7L43.4773 5L55.6136 5L55.6136 7ZM31.3409 7L19.2045 7L19.2045 5L31.3409 5L31.3409 7ZM7.06817 7L1.00002 7L1.00002 5L7.06817 5L7.06817 7ZM2.00002 6L2.00002 11.8269L2.21828e-05 11.8269L2.25902e-05 6L2.00002 6ZM2.00002 23.4808L2.00002 35.1346L2.07322e-05 35.1346L2.14873e-05 23.4808L2.00002 23.4808ZM2.00002 46.7885L2.00002 58.4423L1.92816e-05 58.4423L2.00367e-05 46.7885L2.00002 46.7885ZM2.00002 70.0962L2.00002 81.75L1.7831e-05 81.75L1.85861e-05 70.0962L2.00002 70.0962ZM2.00002 93.4038L2.00002 105.058L1.63804e-05 105.058L1.70759e-05 93.4038L2.00002 93.4038ZM2.00002 116.712L2.00001 128.365L1.49298e-05 128.365L1.56253e-05 116.712L2.00002 116.712ZM2.00001 140.019L2.00001 151.673L1.34792e-05 151.673L1.41747e-05 140.019L2.00001 140.019ZM2.00001 163.327L2.00001 174.981L1.19691e-05 174.981L1.27241e-05 163.327L2.00001 163.327ZM2.00001 186.635L2.00001 198.288L1.05185e-05 198.288L1.12736e-05 186.635L2.00001 186.635ZM2.00001 209.942L2.00001 221.596L9.06786e-06 221.596L9.82296e-06 209.942L2.00001 209.942ZM2.00001 233.25L2.00001 244.904L7.61727e-06 244.904L8.37237e-06 233.25L2.00001 233.25ZM2.00001 256.558L2.00001 268.211L6.16668e-06 268.211L6.92178e-06 256.558L2.00001 256.558ZM2.00001 279.865L2 291.519L4.71608e-06 291.519L5.41158e-06 279.865L2.00001 279.865ZM2 303.173L2 309L3.61324e-06 309L3.96098e-06 303.173L2 303.173ZM1 308L6.8125 308L6.8125 310L1 310L1 308ZM18.4375 308L30.0625 308L30.0625 310L18.4375 310L18.4375 308ZM41.6875 308L53.3125 308L53.3125 310L41.6875 310L41.6875 308ZM64.9375 308L76.5625 308L76.5625 310L64.9375 310L64.9375 308ZM88.1875 308L99.8125 308L99.8125 310L88.1875 310L88.1875 308ZM111.438 308L123.063 308L123.063 310L111.438 310L111.438 308ZM134.688 308L146.313 308L146.313 310L134.688 310L134.688 308ZM157.938 308L169.563 308L169.563 310L157.938 310L157.938 308ZM181.188 308L192.813 308L192.813 310L181.188 310L181.188 308ZM204.438 308L216.063 308L216.063 310L204.438 310L204.438 308ZM227.688 308L239.313 308L239.313 310L227.688 310L227.688 308ZM250.938 308L262.563 308L262.563 310L250.938 310L250.938 308ZM274.188 308L285.813 308L285.813 310L274.188 310L274.188 308ZM297.438 308L309.063 308L309.063 310L297.438 310L297.438 308ZM320.688 308L332.313 308L332.313 310L320.688 310L320.688 308ZM343.938 308L355.563 308L355.563 310L343.938 310L343.938 308ZM268 0.666663C270.946 0.666663 273.333 3.05448 273.333 6C273.333 8.94552 270.946 11.3333 268 11.3333C265.054 11.3333 262.667 8.94552 262.667 6C262.667 3.05448 265.054 0.666663 268 0.666663ZM1.00002 6L2.25902e-05 6L2.26378e-05 5L1.00002 5L1.00002 6ZM1 309L1 310L3.50595e-06 310L3.61324e-06 309L1 309ZM373 309L363 314.773L363 303.226L373 309ZM268 7L261.932 7L261.932 5L268 5L268 7ZM249.795 7L237.659 7L237.659 5L249.795 5L249.795 7ZM225.523 7L213.386 7L213.386 5L225.523 5L225.523 7ZM201.25 7L189.114 7L189.114 5L201.25 5L201.25 7ZM176.977 7L164.841 7L164.841 5L176.977 5L176.977 7ZM152.705 7L140.568 7L140.568 5L152.705 5L152.705 7ZM128.432 7L116.295 7L116.295 5L128.432 5L128.432 7ZM104.159 7L92.0227 7L92.0227 5L104.159 5L104.159 7ZM79.8864 7L67.75 7L67.75 5L79.8864 5L79.8864 7ZM55.6136 7L43.4773 7L43.4773 5L55.6136 5L55.6136 7ZM31.3409 7L19.2045 7L19.2045 5L31.3409 5L31.3409 7ZM7.06817 7L1.00002 7L1.00002 5L7.06817 5L7.06817 7ZM2.00002 6L2.00002 11.8269L2.21828e-05 11.8269L2.25902e-05 6L2.00002 6ZM2.00002 23.4808L2.00002 35.1346L2.07322e-05 35.1346L2.14873e-05 23.4808L2.00002 23.4808ZM2.00002 46.7885L2.00002 58.4423L1.92816e-05 58.4423L2.00367e-05 46.7885L2.00002 46.7885ZM2.00002 70.0962L2.00002 81.75L1.7831e-05 81.75L1.85861e-05 70.0962L2.00002 70.0962ZM2.00002 93.4038L2.00002 105.058L1.63804e-05 105.058L1.70759e-05 93.4038L2.00002 93.4038ZM2.00002 116.712L2.00001 128.365L1.49298e-05 128.365L1.56253e-05 116.712L2.00002 116.712ZM2.00001 140.019L2.00001 151.673L1.34792e-05 151.673L1.41747e-05 140.019L2.00001 140.019ZM2.00001 163.327L2.00001 174.981L1.19691e-05 174.981L1.27241e-05 163.327L2.00001 163.327ZM2.00001 186.635L2.00001 198.288L1.05185e-05 198.288L1.12736e-05 186.635L2.00001 186.635ZM2.00001 209.942L2.00001 221.596L9.06786e-06 221.596L9.82296e-06 209.942L2.00001 209.942ZM2.00001 233.25L2.00001 244.904L7.61727e-06 244.904L8.37237e-06 233.25L2.00001 233.25ZM2.00001 256.558L2.00001 268.211L6.16668e-06 268.211L6.92178e-06 256.558L2.00001 256.558ZM2.00001 279.865L2 291.519L4.71608e-06 291.519L5.41158e-06 279.865L2.00001 279.865ZM2 303.173L2 309L3.61324e-06 309L3.96098e-06 303.173L2 303.173ZM1 308L6.8125 308L6.8125 310L1 310L1 308ZM18.4375 308L30.0625 308L30.0625 310L18.4375 310L18.4375 308ZM41.6875 308L53.3125 308L53.3125 310L41.6875 310L41.6875 308ZM64.9375 308L76.5625 308L76.5625 310L64.9375 310L64.9375 308ZM88.1875 308L99.8125 308L99.8125 310L88.1875 310L88.1875 308ZM111.438 308L123.063 308L123.063 310L111.438 310L111.438 308ZM134.688 308L146.313 308L146.313 310L134.688 310L134.688 308ZM157.938 308L169.563 308L169.563 310L157.938 310L157.938 308ZM181.188 308L192.813 308L192.813 310L181.188 310L181.188 308ZM204.438 308L216.063 308L216.063 310L204.438 310L204.438 308ZM227.688 308L239.313 308L239.313 310L227.688 310L227.688 308ZM250.938 308L262.563 308L262.563 310L250.938 310L250.938 308ZM274.188 308L285.813 308L285.813 310L274.188 310L274.188 308ZM297.438 308L309.063 308L309.063 310L297.438 310L297.438 308ZM320.688 308L332.313 308L332.313 310L320.688 310L320.688 308ZM343.938 308L355.563 308L355.563 310L343.938 310L343.938 308Z" fill="#6C3C14"/>
</svg>
